<svg xmlns="http://www.w3.org/2000/svg" width="1024" height="1024" viewBox="0 0 1024 1024">
  <rect width="1024" height="1024" fill="#FCFCFB"/>

  <g transform="translate(28 36)">
  <rect x="72" y="72" width="828" height="846" rx="188" fill="#E7EAEE"/>
  <rect x="58" y="56" width="844" height="858" rx="190" fill="#F1F3F5"/>
  <rect x="72" y="70" width="816" height="830" rx="178" fill="#E1E5EA"/>
  <rect x="91" y="92" width="778" height="786" rx="158" fill="#F4F5F7"/>
  <rect x="102" y="104" width="756" height="764" rx="148" fill="#EBEEF2"/>
  <rect x="108" y="106" width="742" height="166" rx="72" fill="#FFFFFF" opacity="0.36"/>

  <rect x="184" y="150" width="590" height="113" rx="57" fill="#C9CED6"/>
  <rect x="174" y="137" width="590" height="112" rx="56" fill="#EEF0F3"/>
  <rect x="184" y="146" width="570" height="94" rx="47" fill="#DDE1E6"/>
  <rect x="198" y="156" width="542" height="30" rx="15" fill="#FFFFFF" opacity="0.52"/>
  <circle cx="246" cy="198" r="32" fill="#EEF1F4"/>
  <circle cx="246" cy="198" r="27" fill="#858B94"/>
  <circle cx="638" cy="202" r="17" fill="#DDE1E6"/>
  <circle cx="638" cy="202" r="12" fill="#8E949D"/>
  <circle cx="692" cy="202" r="17" fill="#DDE1E6"/>
  <circle cx="692" cy="202" r="12" fill="#8E949D"/>

  <rect x="124" y="324" width="706" height="446" rx="86" fill="#CCD1D8" opacity="0.42"/>
  <rect x="126" y="313" width="704" height="444" rx="84" fill="#FFFFFF"/>
  <rect x="138" y="325" width="680" height="416" rx="70" fill="#ECEFF3"/>
  <rect x="157" y="339" width="632" height="120" rx="55" fill="#FAFBFC" opacity="0.58"/>
  <ellipse cx="648" cy="462" rx="252" ry="154" fill="#FF4A4A" opacity="0.08"/>
  <ellipse cx="602" cy="486" rx="214" ry="126" fill="#D6DAE0" opacity="0.24"/>

  <rect x="170" y="682" width="28" height="9" rx="4" fill="#AEB4BC"/>
  <rect x="223" y="682" width="28" height="9" rx="4" fill="#AEB4BC"/>
  <rect x="276" y="682" width="28" height="9" rx="4" fill="#AEB4BC"/>
  <rect x="329" y="682" width="28" height="9" rx="4" fill="#AEB4BC"/>
  <rect x="382" y="682" width="28" height="9" rx="4" fill="#AEB4BC"/>
  <rect x="435" y="682" width="28" height="9" rx="4" fill="#AEB4BC"/>
  <rect x="488" y="682" width="28" height="9" rx="4" fill="#AEB4BC"/>
  <rect x="541" y="682" width="28" height="9" rx="4" fill="#AEB4BC"/>
  <rect x="594" y="682" width="28" height="9" rx="4" fill="#AEB4BC"/>
  <rect x="647" y="682" width="28" height="9" rx="4" fill="#AEB4BC"/>
  <rect x="700" y="682" width="28" height="9" rx="4" fill="#AEB4BC"/>

  <path d="M 205 684 L 213 679 L 223 672 L 234 664 L 247 655 L 259 647 L 270 640 L 279 635 L 283 633 L 278 634 L 270 634 L 266 633 L 267 634 L 276 638 L 293 642 L 315 643 L 336 637 L 353 627 L 367 616 L 380 606 L 391 595 L 401 586 L 410 579 L 415 576 L 413 576 L 402 577 L 393 575 L 394 575 L 400 580 L 412 589 L 431 599 L 460 602 L 489 595 L 511 580 L 527 564 L 542 547 L 557 530 L 570 515 L 581 502 L 589 494 L 590 493 L 579 496 L 568 494 L 566 493 L 571 498 L 582 506 L 600 516 L 628 523 L 658 518 L 680 506 L 699 493 L 717 478 L 735 462 L 751 447 L 765 433 L 777 422 L 785 414 L 715 338 L 706 346 L 693 358 L 679 372 L 664 386 L 649 399 L 636 411 L 625 418 L 622 420 L 631 419 L 640 420 L 641 421 L 636 416 L 625 408 L 606 397 L 577 392 L 546 399 L 524 413 L 506 429 L 491 446 L 477 464 L 464 479 L 452 492 L 444 500 L 443 501 L 453 499 L 464 500 L 467 501 L 464 498 L 455 492 L 441 482 L 416 474 L 387 476 L 365 485 L 349 495 L 335 507 L 322 518 L 311 528 L 301 536 L 295 541 L 294 541 L 300 540 L 309 540 L 314 541 L 313 540 L 305 536 L 289 531 L 267 530 L 247 535 L 231 542 L 217 551 L 202 560 L 188 569 L 175 578 L 163 587 L 154 593 L 147 598 Z" fill="#FF4C4C" opacity="0.13"/>
  <path d="M 194 668 L 201 662 L 211 655 L 223 647 L 235 639 L 248 630 L 260 623 L 270 617 L 276 614 L 276 614 L 274 614 L 273 614 L 276 616 L 284 619 L 296 623 L 312 623 L 328 618 L 342 610 L 354 601 L 366 591 L 378 580 L 389 571 L 398 563 L 405 558 L 408 557 L 404 557 L 403 557 L 406 559 L 412 565 L 422 572 L 437 580 L 458 583 L 480 577 L 498 565 L 513 550 L 527 534 L 541 517 L 555 502 L 567 488 L 577 478 L 581 475 L 579 476 L 575 475 L 577 477 L 584 482 L 593 490 L 608 498 L 629 503 L 651 499 L 670 489 L 687 477 L 704 463 L 721 447 L 737 432 L 752 418 L 763 407 L 772 400 L 728 352 L 719 361 L 707 372 L 693 386 L 678 400 L 662 414 L 648 426 L 636 435 L 629 439 L 630 439 L 632 439 L 630 437 L 623 432 L 614 424 L 599 416 L 578 412 L 555 417 L 536 429 L 521 443 L 506 460 L 492 476 L 479 492 L 466 506 L 457 516 L 452 519 L 454 519 L 457 519 L 457 518 L 452 514 L 444 508 L 431 500 L 413 494 L 392 495 L 375 502 L 360 512 L 347 522 L 335 532 L 324 543 L 314 551 L 306 557 L 302 560 L 303 560 L 306 559 L 307 560 L 304 558 L 297 555 L 285 551 L 270 550 L 254 554 L 240 560 L 227 568 L 213 577 L 199 586 L 186 595 L 174 603 L 165 610 L 158 614 Z" fill="#FFFFFF"/>
  <path d="M 189 661 L 197 656 L 207 649 L 218 641 L 231 632 L 244 623 L 256 616 L 266 610 L 273 607 L 275 606 L 275 606 L 276 607 L 280 608 L 287 612 L 297 615 L 311 615 L 325 611 L 337 604 L 349 595 L 361 585 L 372 574 L 383 565 L 393 557 L 402 551 L 406 549 L 406 549 L 406 550 L 410 553 L 417 558 L 427 565 L 440 572 L 458 575 L 477 570 L 493 559 L 507 545 L 521 529 L 535 512 L 549 496 L 561 482 L 572 472 L 578 468 L 579 468 L 578 468 L 582 470 L 589 476 L 598 483 L 611 491 L 629 495 L 648 492 L 665 483 L 682 471 L 699 457 L 716 442 L 732 427 L 746 413 L 758 401 L 766 394 L 734 358 L 725 366 L 713 378 L 699 392 L 683 406 L 668 420 L 653 433 L 640 442 L 632 446 L 630 447 L 629 446 L 625 444 L 618 438 L 609 431 L 596 423 L 578 420 L 558 424 L 541 435 L 527 449 L 512 465 L 498 482 L 485 498 L 472 512 L 462 522 L 455 526 L 455 527 L 455 526 L 452 525 L 447 521 L 439 514 L 428 507 L 412 502 L 394 503 L 379 509 L 365 518 L 353 528 L 341 538 L 329 549 L 319 557 L 311 564 L 305 567 L 304 567 L 305 567 L 304 567 L 301 565 L 294 562 L 284 559 L 270 558 L 257 561 L 244 567 L 231 575 L 217 583 L 204 592 L 191 601 L 179 610 L 169 616 L 163 621 Z" fill="#FFB2AD" opacity="0.85"/>
  <path d="M 186 655 L 193 650 L 203 643 L 214 635 L 227 626 L 240 618 L 252 610 L 263 604 L 271 600 L 275 599 L 276 599 L 279 600 L 283 602 L 289 605 L 298 608 L 310 608 L 322 605 L 334 598 L 345 589 L 356 579 L 368 569 L 379 559 L 389 551 L 398 545 L 404 542 L 407 542 L 409 544 L 414 547 L 421 553 L 430 559 L 442 565 L 457 568 L 473 563 L 488 553 L 502 540 L 516 524 L 530 508 L 543 492 L 556 477 L 567 467 L 575 461 L 578 461 L 581 461 L 586 465 L 593 470 L 602 477 L 613 484 L 629 488 L 646 485 L 662 477 L 678 465 L 694 451 L 711 436 L 727 421 L 741 408 L 753 396 L 761 389 L 739 363 L 730 372 L 718 383 L 703 397 L 688 411 L 672 426 L 657 438 L 644 448 L 634 453 L 630 454 L 627 453 L 621 449 L 614 444 L 605 437 L 593 430 L 578 427 L 561 431 L 546 440 L 532 454 L 518 469 L 504 486 L 490 502 L 477 517 L 466 527 L 459 533 L 455 534 L 453 533 L 449 531 L 442 526 L 435 520 L 425 513 L 411 509 L 396 510 L 382 515 L 369 524 L 357 533 L 345 544 L 334 554 L 323 563 L 315 570 L 308 573 L 305 574 L 304 574 L 302 574 L 298 572 L 291 569 L 282 566 L 271 565 L 259 568 L 247 573 L 235 581 L 221 589 L 208 598 L 195 607 L 183 615 L 173 622 L 166 627 Z" fill="#FF2F2F"/>
  <path d="M 180 647 L 187 642 L 197 635 L 209 627 L 221 618 L 234 609 L 247 601 L 258 595 L 267 591 L 274 589 L 278 589 L 282 591 L 287 593 L 293 596 L 300 598 L 308 598 L 318 595 L 328 590 L 339 581 L 350 572 L 361 562 L 372 552 L 383 543 L 393 536 L 402 533 L 408 532 L 414 535 L 420 539 L 428 545 L 436 551 L 445 556 L 457 558 L 469 554 L 482 546 L 495 533 L 508 518 L 522 501 L 536 485 L 549 470 L 561 459 L 571 452 L 578 451 L 585 452 L 592 456 L 599 462 L 608 469 L 617 475 L 629 478 L 642 476 L 656 468 L 672 457 L 688 444 L 704 429 L 720 414 L 734 400 L 746 389 L 755 381 L 745 371 L 736 379 L 724 390 L 710 404 L 695 419 L 679 433 L 663 446 L 649 456 L 638 462 L 630 464 L 623 462 L 616 458 L 608 451 L 600 445 L 590 439 L 578 437 L 565 440 L 552 448 L 539 461 L 525 476 L 511 492 L 498 509 L 485 523 L 473 535 L 463 542 L 456 544 L 450 543 L 443 539 L 436 534 L 429 528 L 420 522 L 410 519 L 398 519 L 387 524 L 375 532 L 363 541 L 352 551 L 341 561 L 330 571 L 320 578 L 312 583 L 306 584 L 302 584 L 298 583 L 293 581 L 288 578 L 281 576 L 272 575 L 263 577 L 252 582 L 240 589 L 227 597 L 213 606 L 201 615 L 189 624 L 179 630 L 172 635 Z" fill="#FF8E87" opacity="0.76"/>
  <circle cx="750" cy="376" r="60" fill="#FF3A3A" opacity="0.13"/>
  <circle cx="750" cy="376" r="41" fill="#FFFFFF"/>
  <circle cx="750" cy="376" r="33" fill="#FFB1AC"/>
  <circle cx="750" cy="376" r="26" fill="#FF2D2D"/>
  <circle cx="742" cy="366" r="10" fill="#FFA49F"/>
  </g>
</svg>
